<?xml version="1.0" encoding="UTF-8"?>
<svg id="Layer_1" xmlns="http://www.w3.org/2000/svg" viewBox="0 0 320 60.7">
  <defs>
    <style>
      .cls-1 {
        fill: #475569;
      }
    </style>
  </defs>
  <path class="cls-1" d="M51.59.91v2.73c0,.5-.41.91-.91.91h-27.01c-.5,0-.91.41-.91.91v21.7c0,.5.41.91.91.91h10.32c.5,0,.91-.41.91-.91v-.46c0-.5.41-.91.91-.91h1.21c.5,0,.91.41.91.91v7.28c0,.5-.41.91-.91.91h-1.21c-.5,0-.91-.41-.91-.91v-.45c0-.5-.41-.91-.91-.91h-10.32c-.5,0-.91.41-.91.91v21.7c0,.5.41.91.91.91h7.28c.5,0,.91.41.91.91v2.73c0,.5-.41.91-.91.91H.91c-.5,0-.91-.41-.91-.91v-2.73c0-.5.41-.91.91-.91h4.55c2.01,0,3.64-1.63,3.64-3.64V8.19c0-2.01-1.63-3.64-3.64-3.64H.91c-.5,0-.91-.41-.91-.91V.91C0,.41.41,0,.91,0h49.77c.5,0,.91.41.91.91Z"/>
  <path class="cls-1" d="M109.68,4.55c.5,0,.91.41.91.91v49.77c0,.5-.41.91-.91.91-2.01,0-3.64,1.63-3.64,3.64,0,.5-.41.91-.91.91h-31.56c-.5,0-.91-.41-.91-.91,0-2.01-1.63-3.64-3.64-3.64-.5,0-.91-.41-.91-.91V5.46c0-.5.41-.91.91-.91,2.01,0,3.64-1.63,3.64-3.64,0-.5.41-.91.91-.91h31.56c.5,0,.91.41.91.91,0,2.01,1.63,3.64,3.64,3.64ZM96.93,55.23V5.46c0-.5-.41-.91-.91-.91h-13.35c-.5,0-.91.41-.91.91v49.77c0,.5.41.91.91.91h13.35c.5,0,.91-.41.91-.91Z"/>
  <path class="cls-1" d="M188.1,56.14c.5,0,.91.41.91.91v2.73c0,.5-.41.91-.91.91h-16.39c-.5,0-.91-.41-.91-.91,0-2.01-1.63-3.64-3.64-3.64-.5,0-.91-.41-.91-.91v-21.7c0-.5-.41-.91-.91-.91h-13.35c-.5,0-.91.41-.91.91v21.7c0,.5-.41.91-.91.91-2.01,0-3.64,1.63-3.64,3.64,0,.5-.41.91-.91.91h-16.39c-.5,0-.91-.41-.91-.91v-2.73c0-.5.41-.91.91-.91h4.55c2.01,0,3.64-1.63,3.64-3.64V8.19c0-2.01-1.63-3.64-3.64-3.64h-4.55c-.5,0-.91-.41-.91-.91V.91c0-.5.41-.91.91-.91h45.22c.5,0,.91.41.91.91,0,2.01,1.63,3.64,3.64,3.64.5,0,.91.41.91.91v21.7c0,.5-.41.91-.91.91h-2.73c-.5,0-.91.41-.91.91v2.73c0,.5.41.91.91.91h2.73c.5,0,.91.41.91.91v18.97c0,2.01,1.63,3.64,3.64,3.64h4.55ZM151.99,28.07h13.35c.5,0,.91-.41.91-.91V5.46c0-.5-.41-.91-.91-.91h-13.35c-.5,0-.91.41-.91.91v21.7c0,.5.41.91.91.91Z"/>
  <path class="cls-1" d="M257.72,28.98v2.73c0,.5-.41.91-.91.91h-7.28c-.5,0-.91.41-.91.91v21.7c0,.5-.41.91-.91.91-2.01,0-3.64,1.63-3.64,3.64,0,.5-.41.91-.91.91h-31.56c-.5,0-.91-.41-.91-.91,0-2.01-1.63-3.64-3.64-3.64-.5,0-.91-.41-.91-.91V5.46c0-.5.41-.91.91-.91,2.01,0,3.64-1.63,3.64-3.64,0-.5.41-.91.91-.91h31.56c.5,0,.91.41.91.91,0,2.01,1.63,3.64,3.64,3.64.5,0,.91.41.91.91v2.73c0,.5-.41.91-.91.91h-11.84c-.5,0-.91-.41-.91-.91v-2.73c0-.5-.41-.91-.91-.91h-13.35c-.5,0-.91.41-.91.91v49.77c0,.5.41.91.91.91h13.35c.5,0,.91-.41.91-.91v-21.7c0-.5-.41-.91-.91-.91h-7.28c-.5,0-.91-.41-.91-.91v-2.73c0-.5.41-.91.91-.91h30.04c.5,0,.91.41.91.91Z"/>
  <path class="cls-1" d="M291.17,5.46v21.7c0,.5.41.91.91.91h10.32c.5,0,.91-.41.91-.91v-.46c0-.5.41-.91.91-.91h1.21c.5,0,.91.41.91.91v7.28c0,.5-.41.91-.91.91h-1.21c-.5,0-.91-.41-.91-.91v-.45c0-.5-.41-.91-.91-.91h-10.32c-.5,0-.91.41-.91.91v21.7c0,.5.41.91.91.91h27.01c.5,0,.91.41.91.91v2.73c0,.5-.41.91-.91.91h-49.77c-.5,0-.91-.41-.91-.91v-2.73c0-.5.41-.91.91-.91h4.55c2.01,0,3.64-1.63,3.64-3.64V8.19c0-2.01-1.63-3.64-3.64-3.64h-4.55c-.5,0-.91-.41-.91-.91V.91c0-.5.41-.91.91-.91h49.77c.5,0,.91.41.91.91v2.73c0,.5-.41.91-.91.91h-27.01c-.5,0-.91.41-.91.91Z"/>
</svg>